<svg xmlns="http://www.w3.org/2000/svg" xmlns:xlink="http://www.w3.org/1999/xlink" width="113.5mm" height="34.2mm" viewBox="0 0 321.6 97">
  <defs>
    <style>
      .cls-1 {
        isolation: isolate;
      }

      .cls-2 {
        mix-blend-mode: multiply;
      }

      .cls-3 {
        fill: #555;
      }
    </style>
  </defs>
  <g class="cls-1">
    <g id="Layer_2" data-name="Layer 2">
      <g id="Avuedecoucou_Header">
        <g id="Header_Title">
          <g>
            <path class="cls-3" d="M38.5,62.7a5.7,5.7,0,0,1-4.4-1.8H35a8.8,8.8,0,0,0,5.6-2A24.9,24.9,0,0,0,46,53.2c1.7-2.5,3.4-5.1,5.1-8s3.1-5,4.7-7.4a8.1,8.1,0,0,1,4.8-3.3h1.5a7.5,7.5,0,0,1,3.8,1,12.2,12.2,0,0,0-2.6,4.5,47.1,47.1,0,0,0-2.5,7.5,31.3,31.3,0,0,0-1,7.7c0,2.3.5,3.9,1.6,4.7s-.3.3-.9.4a8.8,8.8,0,0,1-2.4.3c-1.9,0-3.2-.4-3.9-1.3a6.6,6.6,0,0,1-.7-2h0A5.1,5.1,0,0,0,52.1,54a5.4,5.4,0,0,0-2.7-1.1,61.3,61.3,0,0,1-4,5.7,14.6,14.6,0,0,1-3.5,3.3A7.3,7.3,0,0,1,38.5,62.7ZM53.8,52.6a49.8,49.8,0,0,1,2.3-7.7A43.7,43.7,0,0,1,59,38.3a7.4,7.4,0,0,0-2,2.5c-1,1.4-2.1,3.2-3.3,5.3l-4,6.3,2.1-.3h.8A1.9,1.9,0,0,1,53.8,52.6Z"/>
            <path class="cls-3" d="M99.6,61.2h-.3l-2-.3a9,9,0,0,1-2.5-.8,6.3,6.3,0,0,1-2.3-1.6,11.7,11.7,0,0,1-2-5,20.2,20.2,0,0,1-.4-4.3c0-.6.1-1.5.1-2.8s.3-3,.5-4.8.4-3.2.4-4.3-.2-1.4-.7-1.4-1.3.6-2.4,1.8a27.7,27.7,0,0,0-3,4,15.5,15.5,0,0,0-1.8,5.1,3.7,3.7,0,0,0-.1,1.1,6.3,6.3,0,0,0,1.2,3.7q-4-1.1-5.1-3.3a5.4,5.4,0,0,1-.7-2.7,8.4,8.4,0,0,1,.7-3,11,11,0,0,1,2.9-4.2,13.9,13.9,0,0,1,5.2-3.1,11.8,11.8,0,0,1,2.9-.5,3.6,3.6,0,0,1,2.2.7,4.9,4.9,0,0,1,1.3,3.6,13.6,13.6,0,0,1-.1,1.5,39.6,39.6,0,0,1-.5,4.5c-.3,1.8-.5,3.6-.7,5.3v1.3a14.9,14.9,0,0,0,.5,3.6,5.1,5.1,0,0,0,2.3,3v-2a41.1,41.1,0,0,1,1.4-10.5,33.2,33.2,0,0,1,3.7-9.2c1.1-1.7,3-2.5,5.4-2.5a13.5,13.5,0,0,1,4.4.7,20.6,20.6,0,0,0-5.1,5.7,50.8,50.8,0,0,0-4,8.1,33.5,33.5,0,0,0-1.8,7.7,4.1,4.1,0,0,0-.1,1.1,4.2,4.2,0,0,0,1.3,3.5C100.4,61,100.1,61.1,99.6,61.2Z"/>
            <path class="cls-3" d="M116,58h0a3.4,3.4,0,0,1-2.8-1.8,8.8,8.8,0,0,1-.5-2.9,4.1,4.1,0,0,1,.1-1.1,15.1,15.1,0,0,1-2.6,4.1,3.9,3.9,0,0,1-3,1.7,3,3,0,0,1-2.7-1.8,7,7,0,0,1-.6-3c0-.3.1-.9.1-1.8a22.3,22.3,0,0,1,.8-3.9,30,30,0,0,1,1.6-4.3,2.2,2.2,0,0,1,1.7-1.4h1.2l1.7.2a6.1,6.1,0,0,1,1.8.9,15,15,0,0,0-1.5,2.9,40.8,40.8,0,0,0-1.7,4.2,28.1,28.1,0,0,0-1,3.9c0,.3-.1.7-.1.9s.2.9.4.9,2.7-3,5.1-8.8a7.3,7.3,0,0,1,.5-1.2,13.1,13.1,0,0,1,.8-2.1,3,3,0,0,1,3-1.5l1.6.3a4.6,4.6,0,0,1,1.9.8,14.3,14.3,0,0,0-1.6,2.9c-.6,1.3-1.2,2.7-1.7,4.1a18.3,18.3,0,0,0-1.1,3.7,4.4,4.4,0,0,0-.2,1c0,.5.2.8.5.8s2-1.2,3.4-3.5,1.2-2,1.5-2.6a.2.2,0,0,1,.2-.2.4.4,0,0,1,.1.3,10.1,10.1,0,0,1-1.3,3.8,12.7,12.7,0,0,1-2.6,3.3A4.6,4.6,0,0,1,116,58Z"/>
            <path class="cls-3" d="M127.5,57.7a7.5,7.5,0,0,1-2.4-.4,4.3,4.3,0,0,1-2.5-2,8.2,8.2,0,0,1-.9-4,11.3,11.3,0,0,1,.4-3,9.8,9.8,0,0,1,1.3-3.2,10.5,10.5,0,0,1,2.4-2.7,5.7,5.7,0,0,1,3.4-1,4.6,4.6,0,0,1,2.7.8,4.3,4.3,0,0,1,1.5,2,4,4,0,0,1,.3,1.5c0,.3-.1.7-.1,1s-1.1,2.7-2.1,3.2a4.6,4.6,0,0,1-2.4.8h-.9a1.2,1.2,0,0,1-1-.5,7.1,7.1,0,0,0-.4,2.4,13.7,13.7,0,0,0,.2,1.6c.1.7.6,1.2,1.6,1.5h.5a5.1,5.1,0,0,0,1.7-.5,5.6,5.6,0,0,0,2.1-1.8,22.3,22.3,0,0,0,2-3.3l.4-.6c.1-.1.1-.2.2-.2s.1.1.1.3a7.9,7.9,0,0,1-1.3,3.7,9.4,9.4,0,0,1-1.8,2.5,7.4,7.4,0,0,1-3.3,1.7Zm.6-8.8a3.8,3.8,0,0,0,2.2-.5,2.3,2.3,0,0,0,1.1-2.1,3.1,3.1,0,0,0-.1-.9.8.8,0,0,0-.7-.5,2.5,2.5,0,0,0-1.4,1,8.4,8.4,0,0,0-1.3,2.1,3.2,3.2,0,0,0-.3.9Z"/>
            <path class="cls-3" d="M156.8,58h-.1c-1.8-.2-2.8-1.5-2.9-4a9.2,9.2,0,0,1-2.2,2.5,4.6,4.6,0,0,1-2.3.8,3.8,3.8,0,0,1-3-1.2,6.5,6.5,0,0,1-1.6-4.8,14.9,14.9,0,0,1,.3-2.5,8.3,8.3,0,0,1,1.2-3.3,7.9,7.9,0,0,1,2.5-2.9,5.5,5.5,0,0,1,3.5-1.2c1.8,0,2.9.7,3.3,2.2,1-3,1.8-5.2,2.4-6.5a2.3,2.3,0,0,1,1.7-1.3h1.1l1.8.2a6.4,6.4,0,0,1,1.9.8,18.8,18.8,0,0,0-1.8,3.6c-.8,1.9-1.6,4-2.5,6.3a62.7,62.7,0,0,0-1.8,6.1,8.8,8.8,0,0,0-.3,2c0,.6.1.9.4.9s2-1.2,3.4-3.5,1.2-2,1.5-2.6.1-.2.2-.2a.4.4,0,0,1,.1.3,10.1,10.1,0,0,1-1.3,3.8,10.9,10.9,0,0,1-2.6,3.3A4.6,4.6,0,0,1,156.8,58Zm-6.3-2.4c.6-.1,1.1-.6,1.7-1.7a25.7,25.7,0,0,0,1.6-3.7,16.1,16.1,0,0,0,.7-3.9c0-.9-.3-1.3-.9-1.4a2.7,2.7,0,0,0-1.5,1.2,11.3,11.3,0,0,0-1.3,2.7,15.8,15.8,0,0,0-.9,3.1,6.5,6.5,0,0,0-.2,1.9v1C149.8,55.3,150.1,55.6,150.5,55.6Z"/>
            <path class="cls-3" d="M168.1,57.7a8,8,0,0,1-2.4-.4,4.2,4.2,0,0,1-2.4-2,7.2,7.2,0,0,1-1-4,17.7,17.7,0,0,1,.4-3,10.1,10.1,0,0,1,1.4-3.2,7.8,7.8,0,0,1,2.4-2.7,5.6,5.6,0,0,1,3.3-1,4.6,4.6,0,0,1,2.7.8,3.9,3.9,0,0,1,1.6,2,7.7,7.7,0,0,1,.2,1.5,3.4,3.4,0,0,1-.1,1,4.8,4.8,0,0,1-2,3.2,5.2,5.2,0,0,1-2.5.8h-.8a1.3,1.3,0,0,1-1.1-.5,10.5,10.5,0,0,0-.3,2.4,10.4,10.4,0,0,0,.1,1.6,2.2,2.2,0,0,0,1.6,1.5h.5a4.9,4.9,0,0,0,1.8-.5,5.6,5.6,0,0,0,2.1-1.8l2-3.3.3-.6.2-.2c.1,0,.1.1.1.3a8.9,8.9,0,0,1-1.2,3.7,12.6,12.6,0,0,1-1.9,2.5,7.6,7.6,0,0,1-3.2,1.7Zm.7-8.8a3.5,3.5,0,0,0,2.1-.5,2.4,2.4,0,0,0,1.2-2.1,3.7,3.7,0,0,0-.2-.9.7.7,0,0,0-.7-.5,2.8,2.8,0,0,0-1.4,1,12.8,12.8,0,0,0-1.3,2.1l-.3.9Z"/>
            <path class="cls-3" d="M198.9,60.9a7,7,0,0,1-4-1.1,6.5,6.5,0,0,1-2.2-3,10.5,10.5,0,0,1-.6-3.6,14.9,14.9,0,0,1,.1-1.7,15.1,15.1,0,0,1,.8-3.8,23.3,23.3,0,0,1,2.1-4.9,25.3,25.3,0,0,1,3.1-4.2,12.7,12.7,0,0,1,4-3,9.2,9.2,0,0,1,4.6-1.1,5.6,5.6,0,0,1,3,.7,5.2,5.2,0,0,1,1.8,1.8,5.3,5.3,0,0,1,.6,2.4,8.7,8.7,0,0,1-.4,2.6,12.8,12.8,0,0,1-1.4,2.9,5.6,5.6,0,0,1-2.7,2,4.5,4.5,0,0,1-1.6.3l-1.6-.3a2.8,2.8,0,0,1-1.7-.9,4.1,4.1,0,0,0,2.4-1.5,19,19,0,0,0,2.9-3.3,9.1,9.1,0,0,0,1.7-3.2v-.4c0-.6-.3-.9-1.1-.9h-.1c-1,.1-2.3.9-3.8,2.4a19.5,19.5,0,0,0-4.2,5.4,28.1,28.1,0,0,0-2,4.9,16.5,16.5,0,0,0-.8,4.5,5,5,0,0,0,.7,2.9,2.5,2.5,0,0,0,2.3,1.1,8,8,0,0,0,4-1.2,21.1,21.1,0,0,0,3.6-3.1,30,30,0,0,0,2.8-3.7q.3-.6.6-.6c.1,0,.2.1.2.3s-.1.2-.2.4a22.9,22.9,0,0,1-4.5,6.9C204.7,59.6,201.9,60.9,198.9,60.9Z"/>
            <path class="cls-3" d="M215,57.7a3.8,3.8,0,0,1-3-1.2,7.4,7.4,0,0,1-1.5-4.9,11.9,11.9,0,0,1,.2-2.5,12.6,12.6,0,0,1,1.2-3.4,8.6,8.6,0,0,1,2.5-3.1,6.2,6.2,0,0,1,3.5-1.2,4.7,4.7,0,0,1,3.9,1.6,6.7,6.7,0,0,1,1.4,4.5,12.9,12.9,0,0,1-.9,4.6,9.7,9.7,0,0,1-2.8,3.9A7.1,7.1,0,0,1,215,57.7Zm1.3-2a2.6,2.6,0,0,0,1.9-1.1,14.7,14.7,0,0,0,1.6-2.8,11.9,11.9,0,0,0,1-4.5c0-1.5-.4-2.2-1.3-2.2a1.9,1.9,0,0,0-1.6,1.1,11.3,11.3,0,0,0-1.4,2.7,15.8,15.8,0,0,0-.9,3.1,15,15,0,0,0-.2,2,4.6,4.6,0,0,0,.1,1A.8.8,0,0,0,216.3,55.7Z"/>
            <path class="cls-3" d="M236.3,58h-.1a3.2,3.2,0,0,1-2.7-1.8,6.8,6.8,0,0,1-.5-2.9V52.2a15,15,0,0,1-2.5,4.1,4.3,4.3,0,0,1-3,1.7,3,3,0,0,1-2.7-1.8,7,7,0,0,1-.6-3,15.3,15.3,0,0,1,.1-1.8,15.7,15.7,0,0,1,.8-3.9,21.6,21.6,0,0,1,1.5-4.3,2.4,2.4,0,0,1,1.8-1.4h1.2l1.6.2a6.6,6.6,0,0,1,1.9.9,14.3,14.3,0,0,0-1.6,2.9,40.9,40.9,0,0,0-1.6,4.2,18.7,18.7,0,0,0-1,3.9,3.1,3.1,0,0,0-.1.9c0,.6.1.9.4.9s2.7-3,5-8.8l.5-1.2.9-2.1a3,3,0,0,1,2.9-1.5l1.7.3a3.7,3.7,0,0,1,1.8.8,21.9,21.9,0,0,0-1.6,2.9c-.6,1.3-1.1,2.7-1.7,4.1a28.4,28.4,0,0,0-1.1,3.7,3.8,3.8,0,0,0-.1,1c0,.5.1.8.4.8s2-1.2,3.4-3.5,1.2-2,1.5-2.6l.2-.2c.1,0,.1.1.1.3a8.6,8.6,0,0,1-1.3,3.8,10.9,10.9,0,0,1-2.6,3.3A4.4,4.4,0,0,1,236.3,58Z"/>
            <path class="cls-3" d="M247.7,57.7a7.5,7.5,0,0,1-2.4-.4,4.5,4.5,0,0,1-2.4-2,8.2,8.2,0,0,1-.9-4,11.3,11.3,0,0,1,.4-3,9.8,9.8,0,0,1,1.3-3.2,9.3,9.3,0,0,1,2.5-2.7,5.2,5.2,0,0,1,3.3-1,4.2,4.2,0,0,1,2.6.8,4.9,4.9,0,0,1,1.4,2.1,4.7,4.7,0,0,1,.3,1.7,2.7,2.7,0,0,1-1.3,2.6,2.5,2.5,0,0,1-1.2.2h-1.1a2.6,2.6,0,0,0,1.1-1.4,3.1,3.1,0,0,0,.3-1.3v-.6c0-.3-.2-.4-.7-.5s-1.2.7-1.9,1.6a17.5,17.5,0,0,0-1.5,3.4,13,13,0,0,0-.3,2.6,10.4,10.4,0,0,0,.1,1.6c.1.7.6,1.2,1.6,1.5h.5a4.1,4.1,0,0,0,1.6-.5c1.2-.5,2.5-2.2,4-5.1l.4-.6a.3.3,0,0,1,.1-.2c.1,0,.2.1.2.3a9.1,9.1,0,0,1-1.3,3.7,7.9,7.9,0,0,1-1.9,2.5,6.7,6.7,0,0,1-3.1,1.7Z"/>
            <path class="cls-3" d="M259.1,57.7a3.8,3.8,0,0,1-3-1.2,7.4,7.4,0,0,1-1.6-4.9,12.9,12.9,0,0,1,.3-2.5,9.9,9.9,0,0,1,1.2-3.4,8.6,8.6,0,0,1,2.5-3.1,6.2,6.2,0,0,1,3.5-1.2,4.7,4.7,0,0,1,3.9,1.6,7.3,7.3,0,0,1,1.4,4.5,12.9,12.9,0,0,1-.9,4.6,10.8,10.8,0,0,1-2.8,3.9A7.4,7.4,0,0,1,259.1,57.7Zm1.3-2a2.7,2.7,0,0,0,1.9-1.1,14.7,14.7,0,0,0,1.6-2.8,11.9,11.9,0,0,0,1-4.5c0-1.5-.4-2.2-1.3-2.2s-1.1.3-1.7,1.1a11.3,11.3,0,0,0-1.3,2.7,15.8,15.8,0,0,0-.9,3.1,15,15,0,0,0-.2,2,4.6,4.6,0,0,0,.1,1A.7.7,0,0,0,260.4,55.7Z"/>
            <path class="cls-3" d="M280.4,58h-.1a3.1,3.1,0,0,1-2.7-1.8,6.8,6.8,0,0,1-.5-2.9V52.2a15,15,0,0,1-2.5,4.1,4.3,4.3,0,0,1-3,1.7,2.9,2.9,0,0,1-2.7-1.8,7,7,0,0,1-.6-3,15.3,15.3,0,0,1,.1-1.8,15.7,15.7,0,0,1,.8-3.9,21.6,21.6,0,0,1,1.5-4.3,2.4,2.4,0,0,1,1.7-1.4h1.2l1.7.2a6.6,6.6,0,0,1,1.9.9,14.3,14.3,0,0,0-1.6,2.9,40.9,40.9,0,0,0-1.6,4.2,18.7,18.7,0,0,0-1,3.9,3.1,3.1,0,0,0-.1.9c0,.6.1.9.4.9s2.6-3,5-8.8l.5-1.2c.3-.7.6-1.5.9-2.1a2.9,2.9,0,0,1,2.9-1.5l1.7.3a3.7,3.7,0,0,1,1.8.8,21.9,21.9,0,0,0-1.6,2.9c-.6,1.3-1.2,2.7-1.7,4.1a28.4,28.4,0,0,0-1.1,3.7,3.8,3.8,0,0,0-.1,1c0,.5.1.8.4.8s2-1.2,3.4-3.5,1.2-2,1.5-2.6.1-.2.2-.2.1.1.1.3a8.6,8.6,0,0,1-1.3,3.8,10.9,10.9,0,0,1-2.6,3.3A4.4,4.4,0,0,1,280.4,58Z"/>
          </g>
        </g>
      </g>
    </g>
  </g>
</svg>
